<?xml version="1.0" encoding="iso-8859-1"?>
<!-- Generator: Adobe Illustrator 19.0.0, SVG Export Plug-In . SVG Version: 6.00 Build 0)  -->
<svg version="1.1" id="Capa_1" xmlns="http://www.w3.org/2000/svg" xmlns:xlink="http://www.w3.org/1999/xlink" x="0px" y="0px"
	 viewBox="0 0 512 512" style="enable-background:new 0 0 512 512;" xml:space="preserve">
<path style="fill:#EDA500;" d="M494.332,446.741L355.568,307.977c51.94-74.472,44.702-177.686-21.717-244.145
	C259.038-11.027,138.495-11.046,63.66,63.79c-74.599,74.6-74.599,195.549,0,270.149c66.458,66.458,169.7,73.71,244.187,21.759
	l138.764,138.764c13.178,13.178,34.543,13.178,47.721,0l0,0C507.51,481.284,507.51,459.918,494.332,446.741z M303.478,302.799
	c-57.625,57.625-151.053,57.625-208.678,0s-57.625-151.053,0-208.678s151.053-57.625,208.678,0
	C361.103,151.745,361.103,245.174,303.478,302.799z"/>
<path style="fill:#FAEFCA;" d="M395.752,348.161l-49.985,45.457l100.844,100.844c13.178,13.178,34.543,13.178,47.721,0l0,0
	c13.178-13.178,13.178-34.543,0-47.721L395.752,348.161z"/>
<path style="fill:#F6D36C;" d="M410.707,363.116l-55.139-55.139c0,0-13.726,17.921-24.3,27.813
	c-10.574,9.892-23.42,19.907-23.42,19.907l55.139,55.139L410.707,363.116z"/>
<path d="M308.905,88.694c-11.965-11.964-25.646-21.816-40.663-29.282c-3.797-1.887-8.402-0.34-10.289,3.456
	c-1.887,3.796-0.34,8.402,3.456,10.289c13.527,6.724,25.855,15.603,36.641,26.391c54.54,54.54,54.54,143.284,0,197.824
	c-26.42,26.421-61.548,40.971-98.911,40.971c-37.365,0-72.492-14.55-98.912-40.971c-26.421-26.42-40.971-61.548-40.971-98.912
	s14.55-72.492,40.971-98.912c15.939-15.939,34.827-27.48,56.137-34.303c20.339-6.511,42.287-8.288,63.466-5.139
	c4.198,0.625,8.099-2.27,8.721-6.463s-2.27-8.097-6.463-8.72c-23.493-3.493-47.839-1.522-70.405,5.703
	c-23.328,7.468-44.876,20.632-62.312,38.068c-29.319,29.319-45.466,68.301-45.466,109.766s16.147,80.447,45.466,109.766
	c29.32,29.32,68.302,45.467,109.767,45.467c41.463,0,80.446-16.147,109.766-45.467C369.43,247.7,369.43,149.219,308.905,88.694z"/>
<path d="M499.76,441.314L365.463,307.019c23.859-36.733,34.945-80.778,31.279-124.757c-3.891-46.686-24.299-90.672-57.463-123.856
	C301.646,20.751,251.744,0.008,198.765,0c-0.013,0-0.018,0-0.031,0C145.768,0,95.867,20.728,58.232,58.363
	c-77.472,77.473-77.471,203.53,0.001,281.002c33.183,33.183,77.174,53.605,123.871,57.504c43.996,3.672,88.044-7.409,124.785-31.276
	l134.296,134.295c8.075,8.075,18.68,12.112,29.287,12.112s21.213-4.037,29.288-12.112
	C515.908,483.739,515.908,457.463,499.76,441.314z M488.906,489.034c-10.166,10.165-26.704,10.164-36.868,0L313.275,350.27
	c-1.485-1.485-3.451-2.248-5.429-2.248c-1.526,0-3.061,0.454-4.388,1.38c-34.843,24.301-77.477,35.725-120.076,32.171
	c-43.084-3.598-83.674-22.442-114.293-53.062C-2.4,257.024-2.401,140.53,69.087,69.042C103.825,34.304,149.865,15,198.734,15
	c0.009,0,0.02,0,0.029,0c48.878,0,94.926,19.327,129.66,54.082c30.602,30.62,49.433,71.293,53.023,114.368
	c3.543,42.501-7.837,85.1-32.041,119.9c-5.209,6.443-19.6,23.703-26.66,29.824c-3.203,2.777-3.548,7.635-0.771,10.837
	c1.518,1.751,3.655,2.653,5.802,2.653c1.782,0,3.573-0.614,5.025-1.874c6.502-5.638,16.965-17.8,23.319-25.409l132.786,132.786
	C499.069,462.331,499.069,478.87,488.906,489.034z"/>
<g>
</g>
<g>
</g>
<g>
</g>
<g>
</g>
<g>
</g>
<g>
</g>
<g>
</g>
<g>
</g>
<g>
</g>
<g>
</g>
<g>
</g>
<g>
</g>
<g>
</g>
<g>
</g>
<g>
</g>
</svg>
