<svg id="Layer_3" enable-background="new 0 0 64 64" height="512" viewBox="0 0 64 64" width="512" xmlns="http://www.w3.org/2000/svg"><path d="m4 22h56v30h-56z" fill="#e3e3e3"/><path d="m4 52h20v6h-20z" fill="#98775a"/><path d="m4 52h17v6h-17z" fill="#cb9e78"/><path d="m40 52h20v6h-20z" fill="#98775a"/><path d="m40 52h17v6h-17z" fill="#cb9e78"/><path d="m2 58h60v4h-60z" fill="#55866b"/><path d="m2 58h57v4h-57z" fill="#71b38e"/><path d="m44 28h12v20h-12z" fill="#85b6cf"/><path d="m8 28h12v20h-12z" fill="#85b6cf"/><path d="m16 44h4v4h-4z" fill="#cb9e78"/><path d="m44 44h4v4h-4z" fill="#cb9e78"/><path d="m8 32h4v6h-4z" fill="#dc6068"/><path d="m12 32h4v6h-4z" fill="#71b38e"/><path d="m12 42h4v6h-4z" fill="#dc6068"/><path d="m48 42h4v6h-4z" fill="#dc6068"/><path d="m52 42h4v6h-4z" fill="#f8cf6a"/><path d="m52 32h4v6h-4z" fill="#dc6068"/><path d="m48 32h4v6h-4z" fill="#f8cf6a"/><path d="m8 42h4v6h-4z" fill="#71b38e"/><path d="m24 36h16v22h-16z" fill="#98775a"/><path d="m24 36h13v22h-13z" fill="#cb9e78"/><path d="m24 48h4v4h-4z" fill="#f1f1f1"/><path d="m28 40h8v4h-8z" fill="#e3e3e3"/><path d="m28 40h5v4h-5z" fill="#f1f1f1"/><path d="m4 16h56v6h-56z" fill="#55866b"/><path d="m4 16h53v6h-53z" fill="#71b38e"/><circle cx="32" cy="16" fill="#98775a" r="14"/><ellipse cx="30.5" cy="16" fill="#cb9e78" rx="12.5" ry="13.917"/><path d="m32 22 8-2v-10l-8 2-8-2v10z" fill="#bdc2c7"/><path d="m62 63h-60c-.552 0-1-.447-1-1v-4c0-.553.448-1 1-1h60c.552 0 1 .447 1 1v4c0 .553-.448 1-1 1zm-59-2h58v-2h-58z"/><path d="m5 58h-2v-42c0-.552.448-1 1-1h14v2h-13z"/><path d="m61 58h-2v-41h-13v-2h14c.552 0 1 .448 1 1z"/><path d="m32 23c-.081 0-.163-.01-.243-.03l-8-2c-.445-.111-.757-.511-.757-.97v-10c0-.308.142-.599.385-.788s.561-.255.858-.182l8 2c.445.111.757.511.757.97v10c0 .308-.142.599-.385.788-.177.139-.394.212-.615.212zm-7-3.781 6 1.5v-7.938l-6-1.5z"/><path d="m32 23c-.221 0-.438-.073-.615-.212-.243-.189-.385-.48-.385-.788v-10c0-.459.312-.859.757-.97l8-2c.297-.075.615-.008.858.182.243.189.385.48.385.788v10c0 .459-.312.859-.757.97l-8 2c-.08.02-.162.03-.243.03zm1-10.219v7.938l6-1.5v-7.938z"/><path d="m32 31c-8.271 0-15-6.729-15-15s6.729-15 15-15 15 6.729 15 15-6.729 15-15 15zm0-28c-7.168 0-13 5.832-13 13s5.832 13 13 13 13-5.832 13-13-5.832-13-13-13z"/><path d="m41 58h-2v-21h-14v21h-2v-22c0-.553.448-1 1-1h16c.552 0 1 .447 1 1z"/><path d="m40 51h20v2h-20z"/><path d="m20 49h-12c-.552 0-1-.447-1-1v-20c0-.552.448-1 1-1h12c.552 0 1 .448 1 1v20c0 .553-.448 1-1 1zm-11-2h10v-18h-10z"/><path d="m8 37h12v2h-12z"/><path d="m56 49h-12c-.552 0-1-.447-1-1v-20c0-.552.448-1 1-1h12c.552 0 1 .448 1 1v20c0 .553-.448 1-1 1zm-11-2h10v-18h-10z"/><path d="m44 37h12v2h-12z"/><path d="m36 45h-8c-.552 0-1-.447-1-1v-4c0-.553.448-1 1-1h8c.552 0 1 .447 1 1v4c0 .553-.448 1-1 1zm-7-2h6v-2h-6z"/><path d="m4 51h20v2h-20z"/><path d="m28 53h-4v-2h3v-2h-3v-2h4c.552 0 1 .447 1 1v4c0 .553-.448 1-1 1z"/><path d="m4 21h16v2h-16z"/><path d="m44 21h16v2h-16z"/><path d="m17 38h-2v-5h-7v-2h8c.552 0 1 .448 1 1z"/><path d="m11 32h2v6h-2z"/><path d="m17 48h-2v-5h-7v-2h8c.552 0 1 .447 1 1z"/><path d="m11 42h2v6h-2z"/><path d="m16 42h4v2h-4z"/><path d="m49 38h-2v-6c0-.552.448-1 1-1h8v2h-7z"/><path d="m51 32h2v6h-2z"/><path d="m49 48h-2v-6c0-.553.448-1 1-1h8v2h-7z"/><path d="m51 42h2v6h-2z"/><path d="m44 42h4v2h-4z"/></svg>